<?xml version="1.0" ?>
<!-- Uploaded to: SVG Repo, www.svgrepo.com, Generator: SVG Repo Mixer Tools -->
<svg width="800px" height="800px" viewBox="0 0 512 512" id="Layer_1" version="1.1" xml:space="preserve" xmlns="http://www.w3.org/2000/svg" xmlns:xlink="http://www.w3.org/1999/xlink">
<style type="text/css">
	.st0{fill:#4CC3F2;}
	.st1{fill:#CFF1FF;}
	.st2{fill:#0A557F;}
	.st3{fill:#FFFFFF;}
</style>
<g>
<path class="st0" d="M230.5,57.2c12.5-12.5,29.1-19.4,46.8-19.4c17.7,0,34.3,6.9,46.8,19.4c25.8,25.8,25.8,67.8,0,93.6l-46.8,46.8   l-46.8-46.8C204.7,125,204.7,83.1,230.5,57.2z"/>
<rect class="st1" height="113.7" width="74.9" x="84.8" y="142.2"/>
<polygon class="st0" points="77.3,372.8 84.8,372.8 69.8,372.8 69.8,414.8 22.5,414.8 22.5,89.1 69.8,89.1 69.8,327.8 84.8,327.8    77.3,327.8  "/>
<polygon class="st1" points="489.5,414.8 394.8,414.8 394.8,389.7 421.1,389.7 421.1,357.2 489.5,357.2  "/>
<polygon class="st0" points="489.5,263.4 489.5,342.2 406.1,342.2 406.1,374.7 379.8,374.7 379.8,414.8 294.2,414.8 294.2,315.9    279.2,315.9 279.2,414.8 264.7,414.8 264.7,342.2 235.2,342.2 235.2,270.9 444.5,270.9 444.5,263.4  "/>
<rect class="st2" height="15" width="67.3" x="437.2" y="67.9"/>
<rect class="st2" height="15" width="15" x="407.2" y="67.9"/>
<rect class="st2" height="15" width="67.3" x="145.4" y="474.1"/>
<rect class="st2" height="15" width="15" x="115.4" y="474.1"/>
<ellipse class="st3" cx="277.3" cy="104.1" rx="21.2" ry="21.2" transform="matrix(6.578241e-03 -1 1 6.578241e-03 171.3932 380.6278)"/>
<path class="st2" d="M277.3,67.9c-20,0-36.2,16.2-36.2,36.2c0,20,16.2,36.2,36.2,36.2s36.2-16.2,36.2-36.2   C313.5,84.1,297.2,67.9,277.3,67.9z M277.3,125.2c-11.7,0-21.2-9.5-21.2-21.2c0-11.7,9.5-21.2,21.2-21.2s21.2,9.5,21.2,21.2   C298.5,115.7,289,125.2,277.3,125.2z"/>
<rect class="st2" height="15" width="15" x="459.5" y="255.9"/>
<rect class="st3" height="15" width="15" x="279.2" y="285.9"/>
<rect class="st2" height="15" width="15" x="69.8" y="342.8"/>
<path class="st2" d="M355.1,127.2c8.2-27.6,1.4-58.8-20.4-80.6c-15.3-15.3-35.7-23.8-57.4-23.8s-42.1,8.4-57.4,23.8   c-21.8,21.8-28.6,53-20.4,80.6H84.8V74.1H7.5v355.7h497V127.2H355.1z M230.5,57.2c12.5-12.5,29.1-19.4,46.8-19.4   s34.3,6.9,46.8,19.4c25.8,25.8,25.8,67.8,0,93.6l-46.8,46.8l-46.8-46.8C204.7,125,204.7,83.1,230.5,57.2z M174.8,142.2h30.9   c3.7,6.9,8.4,13.4,14.2,19.2l57.4,57.4l57.4-57.4c5.8-5.8,10.6-12.3,14.2-19.2h30.9v56.9h-30v56.8l-175,0V142.2z M84.8,142.2h74.9   v113.7H84.8V142.2z M249.7,414.8H84.8v-41.9h-15v41.9H22.5V89.1h47.3v238.8h15v-56.9h135.3v86.3h29.5V414.8z M489.5,414.8h-94.7   v-25h26.4v-32.5h68.4V414.8z M489.5,342.2h-83.4v32.5h-26.4v40h-85.5v-98.9h-15v98.9h-14.5v-72.5h-29.5v-71.3l209.3,0v-15h-79.8   v-41.8h30v-71.9h94.7V342.2z"/>
</g>
</svg>